<mxfile host="app.diagrams.net" agent="Mozilla/5.0 (Macintosh; Intel Mac OS X 10_15_7) AppleWebKit/537.36 (KHTML, like Gecko) Chrome/126.0.0.0 Whale/3.27.254.15 Safari/537.36" version="25.0.3">
  <diagram name="페이지-1" id="wIO3oZFtxyOlvSoCHIZe">
    <mxGraphModel dx="1693" dy="995" grid="1" gridSize="10" guides="1" tooltips="1" connect="1" arrows="1" fold="1" page="1" pageScale="1" pageWidth="1169" pageHeight="827" math="0" shadow="0">
      <root>
        <mxCell id="0" />
        <mxCell id="1" parent="0" />
        <mxCell id="VQGaRaIWbksg6lyRUQ71-1" value="" style="endArrow=classic;html=1;rounded=0;" parent="1" edge="1">
          <mxGeometry width="50" height="50" relative="1" as="geometry">
            <mxPoint x="40" y="680" as="sourcePoint" />
            <mxPoint x="40" y="280" as="targetPoint" />
          </mxGeometry>
        </mxCell>
        <mxCell id="VQGaRaIWbksg6lyRUQ71-2" value="" style="endArrow=classic;html=1;rounded=0;" parent="1" edge="1">
          <mxGeometry width="50" height="50" relative="1" as="geometry">
            <mxPoint x="40" y="680" as="sourcePoint" />
            <mxPoint x="440" y="680" as="targetPoint" />
          </mxGeometry>
        </mxCell>
        <mxCell id="VQGaRaIWbksg6lyRUQ71-26" value="&lt;font style=&quot;font-size: 15px;&quot;&gt;temperature&lt;/font&gt;" style="text;html=1;align=center;verticalAlign=middle;whiteSpace=wrap;rounded=0;" parent="1" vertex="1">
          <mxGeometry x="330" y="690" width="110" height="30" as="geometry" />
        </mxCell>
        <mxCell id="VQGaRaIWbksg6lyRUQ71-27" value="&lt;font style=&quot;font-size: 15px;&quot;&gt;yes(1) or no(0)&lt;/font&gt;" style="text;html=1;align=center;verticalAlign=middle;whiteSpace=wrap;rounded=0;" parent="1" vertex="1">
          <mxGeometry x="20" y="250" width="130" height="30" as="geometry" />
        </mxCell>
        <mxCell id="jFNfPC3I7qvdP90ebE86-1" value="0" style="text;html=1;align=center;verticalAlign=middle;whiteSpace=wrap;rounded=0;" parent="1" vertex="1">
          <mxGeometry x="10" y="680" width="60" height="30" as="geometry" />
        </mxCell>
        <mxCell id="jFNfPC3I7qvdP90ebE86-2" value="1" style="text;html=1;align=center;verticalAlign=middle;whiteSpace=wrap;rounded=0;" parent="1" vertex="1">
          <mxGeometry x="-20" y="470" width="60" height="30" as="geometry" />
        </mxCell>
        <mxCell id="jFNfPC3I7qvdP90ebE86-3" value="" style="endArrow=none;html=1;rounded=0;exitX=1.008;exitY=0.337;exitDx=0;exitDy=0;exitPerimeter=0;strokeWidth=3;strokeColor=#004C99;" parent="1" source="jFNfPC3I7qvdP90ebE86-2" edge="1">
          <mxGeometry width="50" height="50" relative="1" as="geometry">
            <mxPoint x="130" y="470" as="sourcePoint" />
            <mxPoint x="430" y="680" as="targetPoint" />
            <Array as="points">
              <mxPoint x="240" y="480" />
              <mxPoint x="320" y="480" />
              <mxPoint x="320" y="680" />
            </Array>
          </mxGeometry>
        </mxCell>
        <mxCell id="jFNfPC3I7qvdP90ebE86-5" style="edgeStyle=orthogonalEdgeStyle;rounded=0;orthogonalLoop=1;jettySize=auto;html=1;" parent="1" source="jFNfPC3I7qvdP90ebE86-4" edge="1">
          <mxGeometry relative="1" as="geometry">
            <mxPoint x="240" y="690" as="targetPoint" />
          </mxGeometry>
        </mxCell>
        <mxCell id="jFNfPC3I7qvdP90ebE86-4" value="&lt;font style=&quot;font-size: 15px;&quot;&gt;old threshold&lt;/font&gt;" style="text;html=1;align=center;verticalAlign=middle;whiteSpace=wrap;rounded=0;" parent="1" vertex="1">
          <mxGeometry x="185" y="720" width="110" height="30" as="geometry" />
        </mxCell>
        <mxCell id="vHxTuYvlM6deBCrtE4kz-1" value="" style="endArrow=none;html=1;rounded=0;strokeWidth=2;strokeColor=#6c8ebf;dashed=1;fillColor=#dae8fc;" parent="1" edge="1">
          <mxGeometry width="50" height="50" relative="1" as="geometry">
            <mxPoint x="240" y="480" as="sourcePoint" />
            <mxPoint x="240" y="680" as="targetPoint" />
            <Array as="points">
              <mxPoint x="240" y="480" />
              <mxPoint x="240" y="680" />
            </Array>
          </mxGeometry>
        </mxCell>
        <mxCell id="vHxTuYvlM6deBCrtE4kz-2" value="&lt;font style=&quot;font-size: 15px;&quot;&gt;bias&lt;/font&gt;" style="text;html=1;align=center;verticalAlign=middle;whiteSpace=wrap;rounded=0;" parent="1" vertex="1">
          <mxGeometry x="245" y="530" width="50" height="30" as="geometry" />
        </mxCell>
        <mxCell id="vHxTuYvlM6deBCrtE4kz-3" value="" style="endArrow=classic;html=1;rounded=0;" parent="1" edge="1">
          <mxGeometry width="50" height="50" relative="1" as="geometry">
            <mxPoint x="240" y="560" as="sourcePoint" />
            <mxPoint x="320" y="560" as="targetPoint" />
          </mxGeometry>
        </mxCell>
        <mxCell id="vHxTuYvlM6deBCrtE4kz-4" style="edgeStyle=orthogonalEdgeStyle;rounded=0;orthogonalLoop=1;jettySize=auto;html=1;" parent="1" source="vHxTuYvlM6deBCrtE4kz-5" edge="1">
          <mxGeometry relative="1" as="geometry">
            <mxPoint x="319" y="690" as="targetPoint" />
          </mxGeometry>
        </mxCell>
        <mxCell id="vHxTuYvlM6deBCrtE4kz-5" value="&lt;font style=&quot;font-size: 15px;&quot;&gt;new threshold&lt;/font&gt;" style="text;html=1;align=center;verticalAlign=middle;whiteSpace=wrap;rounded=0;" parent="1" vertex="1">
          <mxGeometry x="264" y="750" width="110" height="30" as="geometry" />
        </mxCell>
      </root>
    </mxGraphModel>
  </diagram>
</mxfile>
